<svg xmlns="http://www.w3.org/2000/svg" viewBox="0 0 100 100"><defs><radialGradient id="b" cx=".5" cy=".4" r=".7"><stop offset="0" stop-color="#7d3cff"/><stop offset="1" stop-color="#1a0840"/></radialGradient></defs><rect width="100" height="100" rx="22" fill="url(#b)"/><path d="M22 100 L10 60 L40 78Z M78 100 L90 60 L60 78Z" fill="#e0344f"/><path d="M18 100 Q20 76 50 72 Q80 76 82 100Z" fill="#23213a"/><ellipse cx="50" cy="44" rx="22" ry="24" fill="#f3d2b3"/><path d="M28 42 Q25 14 50 13 Q75 14 72 42 Q68 27 59 28 L50 41 L41 28 Q32 27 28 42Z" fill="#1b1530"/><path d="M35 36 L46 40 M65 36 L54 40" stroke="#1b1530" stroke-width="3.4" stroke-linecap="round"/><circle cx="42" cy="45" r="3" fill="#1b1530"/><circle cx="58" cy="45" r="3" fill="#1b1530"/><circle cx="59" cy="45" r="7" fill="none" stroke="#ffc72c" stroke-width="2"/><path d="M40 59 Q50 67 60 59 Q50 62 40 59Z" fill="#fff" stroke="#5a1a1a" stroke-width="1.4"/><path d="M50 55 Q43 51 36 55 Q33 57 34.5 52.5 M50 55 Q57 51 64 55 Q67 57 65.5 52.5" stroke="#1b1530" stroke-width="3.2" fill="none" stroke-linecap="round"/></svg>
